<?xml version="1.0" encoding="utf-8"?>
<!-- Generator: Adobe Illustrator 27.1.1, SVG Export Plug-In . SVG Version: 6.00 Build 0)  -->
<svg version="1.1" id="Lager_1" xmlns="http://www.w3.org/2000/svg" xmlns:xlink="http://www.w3.org/1999/xlink" x="0px" y="0px"
	 viewBox="0 0 83.4 89.5" style="enable-background:new 0 0 83.4 89.5;" xml:space="preserve">
<style type="text/css">
	.st0{fill:#FFFFFF;}
</style>
<g transform="translate(-571.36 -212.65)">
	<g id="XMLID_00000120531160570091434260000012530186391705688197_">
		<g>
			<path class="st0" d="M647.5,292.3c-0.3,1.7-1.2,2.6-2.7,2.6l-7-1h-3.4l-3.4-0.5c-9.7-1-15.8-3.7-18.1-8.3
				c-1.6,3.2-5.2,5.5-10.8,7c-4.9,1.2-9.6,1.8-14.1,1.8l-6.8,1c-1.5,0-2.5-0.9-2.7-2.6c0-1.7,1.4-2.9,4.1-3.5
				c2.6-0.4,6-0.7,10.3-0.7c5.9-0.3,10.2-1.4,12.9-3.2c3.8-3,6.1-4.5,6.8-4.5c1,0,2.3,0.7,4.1,2.2c4,3.1,8.3,4.8,12.7,5.2l13.8,1
				C646.1,289.4,647.5,290.6,647.5,292.3z"/>
			<path class="st0" d="M620.7,272.4c5,0.2,7.5,1.2,7.5,3.2c0,1.2-5,1.8-15.1,1.8h-7.6c-0.8,0-0.9,0-0.5,0.1
				c-4.7-0.3-7.1-0.9-7.1-1.9c0.2-1.5,1.1-2.3,2.6-2.5c5.2-0.6,9.4-0.9,12.7-0.9h1c0.8,0.1,1.7,0.1,2.8,0.1H620.7z"/>
			<path class="st0" d="M627,263.4c-0.5,1-0.8,2.1-0.8,3.1c0,1.3,0.3,2.4,0.8,3.2c-2.5-0.8-7.1-1.2-13.9-1.2s-11.5,0.4-13.9,1.2
				c0.5-0.9,0.8-1.9,0.8-3.2c0-0.9-0.3-1.9-0.9-3.1c3.3,0.5,8,0.8,14.1,0.8C618.3,264.2,623,263.9,627,263.4z"/>
			<path class="st0" d="M617.1,221.2c0,0.4,0,0.8-0.1,1.2c-0.6,1.8-1.9,2.7-3.9,2.7c-0.4,0-0.8,0-1.2-0.1c-1.9-0.6-2.8-1.8-2.8-3.7
				c0-0.4,0.1-0.9,0.3-1.3c0.7-1.6,1.9-2.4,3.7-2.4c0.4,0,0.9,0.1,1.4,0.2C616.2,218.3,617.1,219.4,617.1,221.2z"/>
			<path class="st0" d="M633.8,248.8c-0.7,4.8-1.8,7.8-3.2,8.9c-2.2,1.8-8,2.7-17.7,2.7c-9,0-14.5-0.7-16.7-2.2
				c-0.4-0.3-0.8-0.6-1.2-0.9c-1.3-1.2-2.2-4.1-2.8-8.5c0.4-4.3,3.2-8.4,8.3-12.4c4.8-3.8,8.9-5.9,12.3-6.3
				c3.6,0.4,7.8,2.5,12.7,6.3C630.6,240.4,633.4,244.5,633.8,248.8z M619.8,248.4v-5h-4.4v-5.6h-4.6v5.6h-4.4v5h4.4v5.7h4.6v-5.7
				H619.8z"/>
			<polygon points="619.8,243.4 619.8,248.4 615.4,248.4 615.4,254.1 610.7,254.1 610.7,248.4 606.3,248.4 606.3,243.4 610.7,243.4 
				610.7,237.8 615.4,237.8 615.4,243.4 			"/>
			<path d="M616.9,282.6c-1.8-1.5-3.2-2.2-4.1-2.2c-0.8,0-3,1.5-6.8,4.5c-2.7,1.8-7,2.9-12.9,3.2c-4.3,0-7.8,0.2-10.3,0.7
				c-2.8,0.6-4.1,1.8-4.1,3.5c0.3,1.7,1.2,2.6,2.7,2.6l6.8-1c4.5,0,9.2-0.6,14.1-1.8c5.6-1.5,9.2-3.8,10.8-7
				c2.3,4.6,8.3,7.3,18.1,8.3l3.4,0.5h3.4l7,1c1.5,0,2.4-0.9,2.7-2.6c0-1.7-1.4-2.9-4.1-3.5l-13.8-1
				C625.2,287.4,621,285.7,616.9,282.6z M605.4,277.5h7.6c10.1,0,15.1-0.6,15.1-1.8c0-2-2.5-3.1-7.5-3.2h-3.8c-1.1,0-2.1,0-2.8-0.1
				h-1c-3.3,0-7.5,0.3-12.7,0.9c-1.5,0.2-2.3,1-2.6,2.5c0,1,2.4,1.7,7.1,1.9C604.5,277.5,604.7,277.5,605.4,277.5z M654.8,291.7
				l-4.4,6.7c-1.5,1.9-3,3.1-4.5,3.8c-0.3-1.7-2.8-2.8-7.5-3.2c0.6,0-0.7-0.1-3.9-0.4c-10.8-1-17.9-3.3-21.4-6.8
				c-3.4,3.3-8.4,5.4-15.2,6.2c-2.8,0.3-7.6,0.9-14.5,1.8c-1.8,0.3-2.8,1.2-3.1,2.5c-1.6-0.4-4-3.1-7.2-8c-0.8-1.2-1.3-2-1.7-2.4
				c2.8-5.4,6.4-8.1,10.6-8.1l7.6,0.4c3.5,0,7.7-0.8,12.4-2.5c-6.1-0.8-9.2-2.6-9.2-5.5l2.6-9.8v-0.3c-5.2-5.7-7.7-11-7.7-16
				c0-5.7,2.8-10.8,8.4-15.5c4.9-4.1,8.5-6.3,10.8-6.6c-1.9-2.3-2.8-4.7-2.8-7.2c0-3.9,2-6.4,5.9-7.5c1-0.3,2-0.4,3.1-0.4
				c4.2,0,7,1.6,8.3,4.8l0.6,2.7v0.4c0,2.7-0.9,5.1-2.7,7.2c2.3,0.3,6,2.5,11,6.7c5.5,4.6,8.3,9.7,8.3,15.4c0,4.8-2.6,10.2-7.7,16
				c0,1.2,0.4,2.9,1.3,5.2c0.9,2.8,1.3,4.4,1.3,4.9c0,2.9-3.1,4.8-9.2,5.5c4.7,1.6,8.8,2.5,12.4,2.5l7.6-0.4
				C648.4,283.5,651.9,286.2,654.8,291.7z M630.6,257.7c1.5-1.1,2.5-4.1,3.2-8.9c-0.4-4.3-3.2-8.4-8.4-12.4c-4.8-3.8-9-5.9-12.7-6.3
				c-3.3,0.4-7.4,2.5-12.3,6.3c-5.1,4-7.8,8.1-8.3,12.4c0.6,4.5,1.5,7.3,2.8,8.5c0.3,0.3,0.7,0.6,1.2,0.9c2.2,1.5,7.7,2.2,16.7,2.2
				C622.6,260.4,628.5,259.5,630.6,257.7z M626.2,266.5c0-1,0.3-2.1,0.8-3.1c-4,0.5-8.7,0.8-13.9,0.8c-6,0-10.7-0.3-14.1-0.8
				c0.6,1.2,0.9,2.2,0.9,3.1c0,1.3-0.3,2.4-0.8,3.2c2.5-0.8,7.1-1.2,13.9-1.2s11.5,0.4,13.9,1.2
				C626.5,268.9,626.2,267.8,626.2,266.5z M616.9,222.3c0.1-0.3,0.1-0.7,0.1-1.2c0-1.7-0.9-2.9-2.6-3.5c-0.5-0.2-1-0.2-1.4-0.2
				c-1.8,0-3.1,0.8-3.7,2.4c-0.2,0.4-0.3,0.9-0.3,1.3c0,1.9,0.9,3.1,2.8,3.7c0.3,0.1,0.7,0.1,1.2,0.1
				C615,225,616.3,224.1,616.9,222.3z"/>
		</g>
		<g>
		</g>
	</g>
</g>
</svg>
