<?xml version="1.0" encoding="utf-8"?>
<!-- Generator: Adobe Illustrator 27.1.1, SVG Export Plug-In . SVG Version: 6.00 Build 0)  -->
<svg version="1.1" id="Lager_1" xmlns="http://www.w3.org/2000/svg" xmlns:xlink="http://www.w3.org/1999/xlink" x="0px" y="0px"
	 viewBox="0 0 78.2 84.9" style="enable-background:new 0 0 78.2 84.9;" xml:space="preserve">
<style type="text/css">
	.st0{fill:#FFFFFF;}
</style>
<g transform="translate(-70.539 -214.2)">
	<g id="XMLID_00000080190664138600033350000012283985156197069501_">
		<g>
			<path class="st0" d="M127.6,292c0,0.3-0.4,0.6-1.2,0.9c-3.1,1-8.7,1.5-16.8,1.5h-2.7c-10.2-0.3-15.2-1.2-15.2-2.5
				c0-1.1,1.6-1.9,4.8-2.4c4.3-0.6,8.7-0.9,13.3-0.9C121.7,288.7,127.6,289.8,127.6,292z"/>
			<path class="st0" d="M114.2,274l19.1,1.5c-0.9,2.9-1.4,6.5-1.7,10.9c-5.8-1.9-13.1-2.8-21.9-2.8c-8.7,0-16,0.9-22,2.8
				c-0.2-4-0.8-7.6-1.7-10.9c1-0.1,2.4-0.2,4-0.2c10.9-0.7,17.5-1.5,19.6-2.5C111,273.3,112.5,273.7,114.2,274z"/>
			<path class="st0" d="M107.3,267.3c0,0.5-0.7,0.9-1.9,1.3c-4,1.2-10.5,1.8-19.4,1.8h-2.3c-0.4-0.6-1.2-1.5-2.2-2.8
				c-4.2-5.4-6.3-9.5-6.3-12.1v-0.5l0.7-3.5c1.2-3.7,3.5-6,7-6.8c1.4-0.5,2.7-0.8,3.9-0.8c3.8,0,7.8,1.9,12,5.7
				C103.8,253.8,106.6,259.8,107.3,267.3z"/>
			<path class="st0" d="M144.1,255.4c0,2.1-0.9,4.5-2.7,7.2l-5.8,7.8c-8.9,0-15.1-0.3-18.8-1c-3.2-0.8-4.8-1.5-4.8-2.1
				c0.7-7.5,3.6-13.4,8.6-17.8c4.3-3.8,8.3-5.7,12-5.7c2.9,0,5.5,0.9,7.6,2.7C142.8,248.5,144.1,251.5,144.1,255.4z"/>
			<path class="st0" d="M115.1,242.3c0,1.9-0.1,3.1-0.3,3.7c-0.3,1.1-0.8,2.3-1.4,3.6l-3.7,5.9c0-0.3-0.3-0.7-0.8-1.3
				c-2.2-3.2-3.7-5.9-4.4-8.3c-0.2-0.6-0.3-1.9-0.3-3.7c0-5.1,1.9-7.6,5.6-7.6C113.3,234.7,115.1,237.3,115.1,242.3z"/>
			<path d="M148.8,254.6c0,3.4-1.7,7.5-5.2,12.3c-2.8,4-4.6,6.9-5.3,8.6c-1.5,3.9-2.3,8.9-2.6,15c-0.2,5.8-8.9,8.6-26.1,8.6
				c-17.1,0-25.8-2.9-26.1-8.6c-0.4-7.9-1.8-13.9-4-17.9c-1-1.6-2.3-3.6-4-5.9c-2.9-3.9-4.6-7.1-4.9-9.8c-0.1-0.7-0.1-1.4-0.1-2.2
				c0-5.4,2.3-9.7,6.8-12.8c1.1-0.7,2.3-1.2,3.5-1.7c4.6-1.6,9.1-1.4,13.6,0.8c1.6,0.8,3.3,1.8,4.9,3.1l0.1,0.1
				c0-1.8,0.1-3.7,0.3-5.8c0-0.6,0.3-1.4,0.9-2.4c1.4-2.2,3-4,4.9-5.3c0.3-0.2,0.7-0.4,1-0.6v-3.1l-5.3-3.1v-4.6h4.8l1.7-4.9h3.9
				l1.7,4.9h4.8v4.6l-5.3,3.1v3.1c4.5,2.8,6.8,5.7,6.8,8.5c0.2,1.7,0.3,3.6,0.3,5.7l0.1-0.1c5.4-4.6,11.1-6,17-4.4
				c1.5,0.4,3,1.1,4.4,1.9C146.2,244.5,148.7,248.8,148.8,254.6z M141.4,262.6c1.8-2.8,2.7-5.2,2.7-7.2c0-3.9-1.3-6.8-3.9-8.9
				c-2.2-1.8-4.7-2.7-7.6-2.7c-3.7,0-7.7,1.9-12,5.7c-5.1,4.4-8,10.3-8.6,17.8c0,0.6,1.6,1.3,4.8,2.1c3.7,0.7,10,1,18.8,1
				L141.4,262.6z M133.3,275.5l-19.1-1.5c-1.6-0.2-3.1-0.6-4.5-1.2c-2.2,1-8.7,1.8-19.6,2.5c-1.6,0.1-3,0.2-4,0.2
				c0.9,3.3,1.4,6.9,1.7,10.9c5.9-1.9,13.3-2.8,22-2.8c8.9,0,16.2,0.9,21.9,2.8C131.9,282.1,132.4,278.5,133.3,275.5z M126.4,293
				c0.8-0.3,1.2-0.6,1.2-0.9c0-2.2-5.9-3.4-17.8-3.4c-4.6,0-9,0.3-13.3,0.9c-3.2,0.5-4.8,1.3-4.8,2.4c0,1.3,5.1,2.1,15.2,2.5h2.7
				C117.7,294.5,123.3,294,126.4,293z M114.8,246.1c0.2-0.6,0.3-1.9,0.3-3.7c0-5.1-1.8-7.6-5.3-7.6c-3.7,0-5.6,2.5-5.6,7.6
				c0,1.9,0.1,3.1,0.3,3.7c0.7,2.3,2.2,5.1,4.4,8.3c0.5,0.6,0.8,1,0.8,1.3l3.7-5.9C114,248.4,114.5,247.2,114.8,246.1z M105.4,268.5
				c1.3-0.3,1.9-0.8,1.9-1.3c-0.7-7.5-3.6-13.4-8.7-17.8c-4.2-3.8-8.2-5.7-12-5.7c-1.2,0-2.5,0.2-3.9,0.8c-3.4,0.9-5.8,3.1-7,6.8
				l-0.7,3.5v0.5c0,2.7,2.1,6.7,6.3,12.1c1,1.3,1.8,2.2,2.2,2.8H86C94.9,270.4,101.4,269.8,105.4,268.5z"/>
		</g>
		<g>
		</g>
	</g>
</g>
</svg>
