<?xml version="1.0" encoding="utf-8"?>
<!-- Generator: Adobe Illustrator 27.1.1, SVG Export Plug-In . SVG Version: 6.00 Build 0)  -->
<svg version="1.1" id="Lager_1" xmlns="http://www.w3.org/2000/svg" xmlns:xlink="http://www.w3.org/1999/xlink" x="0px" y="0px"
	 viewBox="0 0 55.4 75.9" style="enable-background:new 0 0 55.4 75.9;" xml:space="preserve">
<style type="text/css">
	.st0{fill:#FFFFFF;}
</style>
<g transform="translate(-921.42 -223.24)">
	<g id="XMLID_00000112624878210109170630000006488293806546153391_">
		<g>
			<path class="st0" d="M972.2,294h-46.1c0-4.2,0.5-7.8,1.4-10.8c1.7-5.4,5.7-10,11.9-13.8c3.3-2,5-3.8,5-5.4c0-0.8-0.8-1.7-2.4-2.8
				c-3.4-2-5-4.6-5-8c0-3.9,2-7,5.9-9.3c2-1,3-2.1,3-3.1c0.1-1-0.2-2.1-0.9-3.4c-1.1-2.1-1.7-3.6-1.7-4.4c0-0.7,0.2-1.4,0.5-2.1
				c1-2.1,2.8-3.2,5.2-3.2c0.8,0,1.5,0.1,2.3,0.4c2.4,1,3.6,2.7,3.6,4.9c0,1.3-0.3,2.4-1,3.3c-1,1.5-1.5,2.9-1.5,4.4
				c0,0.5,0.2,1,0.6,1.4l2.3,1.7c4,2.2,6.1,5.3,6.1,9.3c0,1.1-0.1,2.1-0.3,2.9c-0.5,2-2.1,3.7-4.8,5.2c-1.7,1-2.6,2-2.6,2.8
				c0,1.6,1.7,3.4,5,5.4c2.4,1.4,4.4,2.8,6.1,4.4C969.7,278.2,972.2,285,972.2,294z"/>
			<path d="M976.8,293.2c0,2.8,0,4.8-0.1,5.9h-55.1c-0.1-1-0.1-3-0.1-5.9c0-10.6,3.1-18.5,9.3-23.8c2.1-1.7,4.7-3.4,7.9-5
				c-3.3-1-5.5-3.5-6.6-7.5c-0.4-1.3-0.6-2.6-0.6-4c0-5.8,2.9-9.9,8.8-12.4c-1.4-2.5-2.1-4.9-2.1-7.4c0-4,1.9-6.9,5.8-8.8
				c1.6-0.8,3.4-1.2,5.3-1.2c4.4,0,7.6,1.7,9.7,5c1,1.5,1.4,3.1,1.4,4.9c0,2.3-0.8,4.8-2.3,7.4c5.9,2.4,8.9,6.5,8.9,12.4
				c0,4.6-1.7,8-5,10.3c-0.7,0.5-1.5,0.9-2.3,1.2c7.7,4,12.8,9,15.1,15.1C976.1,283.3,976.8,287.9,976.8,293.2z M926.1,294h46.1
				c0-9-2.5-15.8-7.4-20.3c-1.6-1.5-3.7-3-6.1-4.4c-3.3-2-5-3.8-5-5.4c0-0.9,0.9-1.8,2.6-2.8c2.7-1.5,4.3-3.2,4.8-5.2
				c0.2-0.8,0.3-1.7,0.3-2.9c0-3.9-2-7-6.1-9.3l-2.3-1.7c-0.4-0.4-0.6-0.9-0.6-1.4c0-1.5,0.5-2.9,1.5-4.4c0.7-0.9,1-2.1,1-3.3
				c0-2.2-1.2-3.9-3.6-4.9c-0.8-0.3-1.5-0.4-2.3-0.4c-2.4,0-4.1,1.1-5.2,3.2c-0.4,0.7-0.5,1.4-0.5,2.1c0,0.8,0.6,2.2,1.7,4.4
				c0.7,1.2,1,2.3,0.9,3.4c0,1-1,2.1-3,3.1c-4,2.3-5.9,5.4-5.9,9.3c0,3.4,1.7,6,5,8c1.6,1.1,2.4,2.1,2.4,2.8c0,1.6-1.7,3.4-5,5.4
				c-6.2,3.8-10.2,8.4-11.9,13.8C926.5,286.2,926.1,289.8,926.1,294z"/>
		</g>
		<g>
		</g>
	</g>
</g>
</svg>
