<?xml version="1.0" encoding="utf-8"?>
<!-- Generator: Adobe Illustrator 27.1.1, SVG Export Plug-In . SVG Version: 6.00 Build 0)  -->
<svg version="1.1" id="Lager_1" xmlns="http://www.w3.org/2000/svg" xmlns:xlink="http://www.w3.org/1999/xlink" x="0px" y="0px"
	 viewBox="0 0 89.5 83.4" style="enable-background:new 0 0 89.5 83.4;" xml:space="preserve">
<style type="text/css">
	.st0{fill:#FFFFFF;}
</style>
<g transform="translate(-232.79 -215.75)">
	<g id="XMLID_00000005231078289253106950000010377996178278884225_">
		<g>
			<path class="st0" d="M297,288.7c1.1,0.6,1.7,1.2,1.7,1.9c0,2.1-7,3.2-21,3.2s-21-1.1-21-3.2c0-1.6,2.1-2.6,6.3-3
				c5.4-0.4,10.3-0.6,14.7-0.6C287.2,287,293.7,287.6,297,288.7z"/>
			<path class="st0" d="M298.5,275.9c-1,0.9-1.5,2.5-1.5,5c0,1.6,0.2,2.6,0.8,3c-5.2-0.9-11.9-1.4-20.1-1.4s-15,0.5-20.1,1.4
				c0.5-0.3,0.8-1.3,0.8-3c0-2.5-0.5-4.2-1.5-5c6.5-0.9,13.4-1.3,20.9-1.3C284.7,274.6,291.7,275,298.5,275.9z"/>
			<path class="st0" d="M300.2,269.8v0.5c0,0.4-0.8,0.6-2.3,0.6h-0.1l-12.8-0.8c-1.8-0.1-3.4-0.1-4.6-0.1h-5.7l-17.3,0.9
				c-1.6,0-2.3-0.2-2.3-0.6v-0.5c0-1,1-1.9,3.1-2.7c4.6-1.7,11.1-2.6,19.5-2.6c1.5,0,3.4,0.1,5.4,0.3
				C294.5,265.6,300.2,267.3,300.2,269.8z"/>
			<path class="st0" d="M257.8,261.5l0.2,0.8c-3.1,0.9-6,2.1-8.5,3.6c-0.8-0.3-1.4-1.2-1.9-3c-0.8-2.3-1.9-7.2-3.4-14.6
				C248.7,254.3,253.2,258.7,257.8,261.5z"/>
			<path class="st0" d="M271,260c-4.8,0.4-9.1,1.1-13,2.3l-0.2-0.8c1.5-8.4,2.2-14.7,2.2-18.7c0-1.3-0.1-2.5-0.3-3.7
				c2.8,8.2,5.4,13.7,7.9,16.6c2,2.3,3.1,3.6,3.4,3.9L271,260z"/>
			<path class="st0" d="M277.6,259.8c-2.3,0-4.5,0.1-6.5,0.2l0-0.5v-0.1l1.9-3.1c1.9-3.4,3.4-8.8,4.6-16.4
				c1.5,7.1,2.7,11.7,3.4,13.6c0.2,0.3,0.3,0.7,0.4,1l2.8,5l0,0.5C282,259.9,279.9,259.8,277.6,259.8z"/>
			<path class="st0" d="M310.8,248.3c-1.9,11.2-3.6,17-5.2,17.6c-2.5-1.5-5.4-2.7-8.5-3.6l0.2-0.8
				C301.8,258.9,306.3,254.5,310.8,248.3z"/>
			<path class="st0" d="M285.5,258c1.5-1.6,2.8-3.4,4-5.2c2.2-4,4.2-8.7,5.9-13.8c-0.2,2.1-0.3,3.7-0.3,4.8c0,4.3,0.7,10.2,2.2,17.7
				l-0.2,0.8c-3.9-1.1-8.2-1.9-13-2.2l0-0.5C284.4,259.2,284.8,258.6,285.5,258z"/>
			<path class="st0" d="M314.9,231.6c2.1,0,3.2,1,3.2,3.1c0,2.2-1.1,3.4-3.2,3.4c-0.3,0-0.5,0-0.8-0.1c-1.6-0.4-2.3-1.5-2.3-3.2
				c0-0.3,0.1-0.7,0.1-1C312.5,232.3,313.5,231.6,314.9,231.6z"/>
			<path class="st0" d="M298,223.4c2.2,0,3.4,1.1,3.4,3.2c0,2.2-1.1,3.2-3.4,3.2c-0.4,0-0.6,0-0.9-0.1c-1.5-0.5-2.2-1.6-2.2-3.1
				l0.1-1C295.5,224.1,296.5,223.4,298,223.4z"/>
			<path class="st0" d="M243.1,234.7c0,2.2-1,3.4-3.1,3.4c-2.1,0-3.2-1.1-3.2-3.4c0-2.1,1.1-3.1,3.2-3.1c0.4,0,0.7,0,0.9,0.1
				C242.4,232.3,243.1,233.3,243.1,234.7z"/>
			<path class="st0" d="M256.9,223.4c2.1,0,3.1,1.1,3.1,3.2c0,2.2-1,3.2-3.1,3.2c-2.1,0-3.2-1.1-3.2-3.2
				C253.7,224.4,254.8,223.4,256.9,223.4z"/>
			<path class="st0" d="M277.6,219.5c2.1,0,3.1,1,3.1,3.1c0,2.2-1,3.4-3.1,3.4c-2.1,0-3.2-1.1-3.2-3.4
				C274.4,220.5,275.4,219.5,277.6,219.5z"/>
			<path d="M322.3,233.9v0.8c0,3.5-2,6.2-5.9,8c-0.2,3.7-1.6,11-4.3,21.8c-0.2,0.5-0.3,1-0.4,1.4c0,1.2-1.4,3.3-4.1,6.2
				c-3.7,3.7-5.5,6.6-5.5,8.6c0,0.9,1,3.5,3.1,7.6c0.3,0.8,0.5,1.9,0.5,3.5v0.9c-0.1,0.3-0.1,0.6-0.1,0.9v0.1l0.1,0.1
				c0,3.1-8.3,4.8-24.9,5.2h-3.2L272,299h-0.1c-8.1-0.3-14.2-0.9-18.5-2.1c-2.7-0.8-4-1.8-4-3c0.1-0.1,0.1-0.6,0-1.5
				c-0.1-0.2-0.1-0.4,0-0.5c0-2,0.6-4.3,1.9-6.8c1-2.1,1.6-3.5,1.6-4.3c0-1.4-0.7-3-2.2-4.9l-6.3-7.2c-0.7-0.9-1-1.9-1-2.7
				c-2.7-10.9-4.2-18-4.5-21.3c-0.1-0.7-0.1-1.3-0.1-1.9c-4-1.8-5.9-4.5-5.9-8c0-2.8,1.3-4.9,3.9-6.3c1.1-0.6,2.2-0.9,3.3-0.9
				c3,0,5.2,1.4,6.5,4.1c0.5,0.9,0.8,2,0.8,3.1l-0.6,5c0,3.8,2.8,8.5,8.3,14.1c0.4-3.8,0.6-7.4,0.6-10.8c0-4.7-0.6-7.9-1.7-9.4
				c-0.4-0.6-1.1-1.3-1.9-2.1c-1.6-1-2.3-2.8-2.3-5.2c0-3,1.4-5.2,4.3-6.6c0.9-0.4,2-0.6,3.1-0.6c3,0,5.2,1.4,6.5,4.1
				c0.5,0.9,0.8,2,0.8,3.1l-0.8,5.4v0.1c0,4.9,2.3,12.3,7,22.2c1.8-7.8,2.7-14.1,2.7-18.7c0-3.4-0.6-6.7-1.9-9.8
				c-0.5-1.2-0.8-2.1-0.8-2.6c0-3,1.4-5.2,4.1-6.4c1-0.5,2-0.8,3.1-0.8c3.1,0,5.2,1.4,6.5,4.3l0.6,2.6v0.4c0,0.5-0.3,1.6-1,3.2
				c-1.2,3.5-1.8,6.6-1.8,9.2c0,4.2,0.9,10.5,2.8,18.7c4.6-9.8,7-17.2,7-22.2l-0.8-5.6c0-3,1.3-5.2,4-6.5c1-0.5,2-0.8,3.1-0.8
				c3.1,0,5.3,1.4,6.6,4.1c0.5,1,0.8,2.1,0.8,3.1c0,2.2-0.8,4-2.3,5.3c-2.3,2.3-3.5,6.1-3.6,11.4c0,2.2,0.2,5.8,0.6,10.8
				c5.6-5.8,8.4-10.4,8.4-14.1l-0.6-5c0-2.8,1.3-4.9,3.9-6.3c1-0.6,2.1-0.9,3.2-0.9c2.9,0,5.1,1.3,6.6,4L322.3,233.9z M318.1,234.7
				c0-2.1-1.1-3.1-3.2-3.1c-1.4,0-2.4,0.7-3,2.1c-0.1,0.3-0.1,0.7-0.1,1c0,1.7,0.8,2.8,2.3,3.2c0.2,0.1,0.5,0.1,0.8,0.1
				C317,238.1,318.1,237,318.1,234.7z M305.6,265.8c1.6-0.5,3.3-6.4,5.2-17.6c-4.5,6.2-8.9,10.6-13.4,13.2
				c-1.5-7.5-2.2-13.4-2.2-17.7c0-1.1,0.1-2.7,0.3-4.8c-1.7,5.2-3.7,9.8-5.9,13.8c-1.2,1.8-2.5,3.5-4,5.2c-0.7,0.7-1.1,1.2-1.3,1.5
				l-2.8-5c-0.1-0.3-0.2-0.7-0.4-1c-0.7-1.9-1.8-6.4-3.4-13.6c-1.2,7.6-2.8,13-4.6,16.4l-1.9,3.1v0.1c-0.3-0.3-1.4-1.5-3.4-3.9
				c-2.5-2.9-5.1-8.5-7.9-16.6c0.2,1.2,0.3,2.4,0.3,3.7c0,4.1-0.7,10.3-2.2,18.7c-4.7-2.8-9.2-7.1-13.6-13.2
				c1.5,7.4,2.6,12.3,3.4,14.6c0.5,1.7,1.2,2.7,1.9,3c2.5-1.5,5.4-2.6,8.5-3.6c3.9-1.2,8.2-1.9,13-2.3c2.1-0.1,4.3-0.2,6.5-0.2
				s4.5,0.1,6.5,0.2c4.8,0.4,9.1,1.1,13,2.2C300.2,263.2,303.1,264.4,305.6,265.8z M301.4,226.6c0-2.1-1.1-3.2-3.4-3.2
				c-1.5,0-2.5,0.7-3,2.2l-0.1,1c0,1.6,0.7,2.6,2.2,3.1c0.3,0.1,0.6,0.1,0.9,0.1C300.2,229.8,301.4,228.8,301.4,226.6z M300.2,270.4
				v-0.5c0-2.6-5.7-4.3-17.2-5c-2.1-0.2-3.9-0.3-5.4-0.3c-8.4,0-14.9,0.9-19.5,2.6c-2.1,0.8-3.1,1.7-3.1,2.7v0.5
				c0,0.4,0.8,0.6,2.3,0.6l17.3-0.9h5.7c1.3,0,2.8,0,4.6,0.1l12.8,0.8h0.1C299.4,271,300.2,270.8,300.2,270.4z M298.6,290.6
				c0-0.7-0.6-1.3-1.7-1.9c-3.3-1.1-9.7-1.7-19.4-1.7c-4.4,0-9.3,0.2-14.7,0.6c-4.2,0.3-6.3,1.3-6.3,3c0,2.1,7,3.2,21,3.2
				S298.6,292.8,298.6,290.6z M297,280.9c0-2.5,0.5-4.2,1.5-5c-6.8-0.9-13.8-1.3-20.9-1.3c-7.5,0-14.5,0.4-20.9,1.3
				c1,0.9,1.5,2.5,1.5,5c0,1.6-0.2,2.6-0.8,3c5.2-0.9,11.9-1.4,20.1-1.4s15,0.5,20.1,1.4C297.2,283.6,297,282.6,297,280.9z
				 M280.7,222.6c0-2.1-1-3.1-3.1-3.1c-2.1,0-3.2,1-3.2,3.1c0,2.2,1.1,3.4,3.2,3.4C279.7,225.9,280.7,224.8,280.7,222.6z M260,226.6
				c0-2.1-1-3.2-3.1-3.2c-2.1,0-3.2,1.1-3.2,3.2c0,2.2,1.1,3.2,3.2,3.2C259,229.8,260,228.8,260,226.6z M240,238.1
				c2.1,0,3.1-1.1,3.1-3.4c0-1.5-0.7-2.5-2.2-3c-0.3-0.1-0.6-0.1-0.9-0.1c-2.1,0-3.2,1-3.2,3.1C236.8,237,237.9,238.1,240,238.1z"/>
		</g>
		<g>
		</g>
	</g>
</g>
</svg>
