<?xml version="1.0" encoding="utf-8"?>
<!-- Generator: Adobe Illustrator 27.1.1, SVG Export Plug-In . SVG Version: 6.00 Build 0)  -->
<svg version="1.1" id="Lager_1" xmlns="http://www.w3.org/2000/svg" xmlns:xlink="http://www.w3.org/1999/xlink" x="0px" y="0px"
	 viewBox="0 0 64.8 75.8" style="enable-background:new 0 0 64.8 75.8;" xml:space="preserve">
<style type="text/css">
	.st0{fill:#FFFFFF;}
</style>
<g transform="translate(-412.73 -223.37)">
	<g id="XMLID_00000080889823207599890790000002220625447509774991_">
		<g>
			<polygon class="st0" points="471.2,230.3 471.2,237.6 462.4,244.7 427.8,244.7 419.1,237.6 419.1,230.3 420.7,228.5 428,228.5 
				428,232.1 429.9,233.9 438.3,233.9 440.2,232.1 440.2,228.8 450,228.8 450,232.1 452,233.9 460.4,233.9 462.3,232.1 462.3,228.5 
				469.5,228.5 			"/>
			<rect x="417.2" y="288.9" class="st0" width="55.8" height="5"/>
			<polygon class="st0" points="468.9,284.4 421.4,284.4 429.9,276.2 460.4,276.2 			"/>
			<rect x="430.4" y="249.1" class="st0" width="29.4" height="22.9"/>
			<path d="M477.5,287.8v8.9l-2.4,2.5h-59.9l-2.5-2.5v-8.9l13.2-13.3v-25.8l-11.4-9.9V227l3.7-3.6h11.6l2.2,2.2v3.4h3.7v-3.4
				l2.2-2.2h14.2l2.2,2.2v3.4h3.6v-3.4l2.3-2.2H472l3.7,3.6v11.8l-11.4,9.9v25.8L477.5,287.8z M473,294v-5h-55.8v5H473z
				 M471.2,237.6v-7.2l-1.7-1.8h-7.2v3.6l-1.9,1.8H452l-1.9-1.8v-3.4h-9.8v3.4l-1.9,1.8h-8.4l-1.9-1.8v-3.6h-7.2l-1.7,1.8v7.2
				l8.8,7.1h34.6L471.2,237.6z M421.4,284.4h47.5l-8.5-8.3h-30.5L421.4,284.4z M459.8,271.9v-22.9h-29.4v22.9H459.8z"/>
		</g>
		<g>
		</g>
	</g>
</g>
</svg>
